<svg xmlns="http://www.w3.org/2000/svg" width="296.825" height="305.723" viewBox="0 0 296.825 305.723"><g id="Group_4" data-name="Group 4" transform="translate(-17.175 -6.154)"><g id="Group_3" data-name="Group 3"><g id="Group_2" data-name="Group 2"><path id="Path_12" data-name="Path 12" d="M112.331,36a4,4,0,0,1-3.1-6.522c9.874-12.152,51.377-26.449,79.937-3.6a4,4,0,0,1-5,6.247c-25.674-20.539-61.918-5.985-68.73,2.4A3.993,3.993,0,0,1,112.331,36Z"></path><path id="Path_14" data-name="Path 14" d="M112.331,36a4,4,0,0,1-3.041-6.6c10.643-12.478,24.749-12.455,30.721-10.7a4,4,0,1,1-2.256,7.675c-.123-.036-12.564-3.291-22.378,8.216A3.992,3.992,0,0,1,112.331,36Z" transform="translate(12.95 -89.285) rotate(51)"></path><path id="Path_13" data-name="Path 13" d="M120,129.668a4,4,0,0,1-3.627-2.309c-14.205-30.44-11.094-92.069-6.34-102.368a4,4,0,1,1,7.264,3.352c-3.507,7.6-7.024,67.024,6.326,95.632A4,4,0,0,1,120,129.668Z" transform="translate(-65 48)"></path><path id="Path_15" data-name="Path 15" d="M194.909,311.877q-.961,0-1.933-.075c-9.769-.756-17.5-6.82-21.217-16.637l-18.17-79.6c-2.4-3.636-5.236-5.766-8.44-6.334-6-1.063-11.878,3.372-11.936,3.417-7.97,4.24-10.808,22.153-11.222,28.124a4,4,0,0,1-7.981-.553c.195-2.813,2.269-27.672,14.887-34.268a25.767,25.767,0,0,1,14.355-4.883,18.847,18.847,0,0,1,3.292.285c5.691,1.008,10.464,4.551,14.185,10.528a4,4,0,0,1,.5,1.226l18.167,79.75a16.3,16.3,0,0,0,14.193,10.964c5.109.4,10.125-1.623,11.928-4.8,4.592-8.091,13.431-41.737,17.206-56.1l.906-3.443a4,4,0,0,1,7.735,2.043l-.9,3.432c-6.689,25.461-13.5,50.112-17.985,58.021C209.38,308.435,202.475,311.877,194.909,311.877Z"></path><path id="Path_16" data-name="Path 16" d="M151.974,62.27c-19.035,0-37.861-21.388-38.707-22.36-9.09-6.83-20.051-5.771-27.54-3.581-11.642,3.4-19.984,10.88-20.827,13.187a4,4,0,1,1-7.514-2.746c2.073-5.672,13.053-14.307,26.1-18.12,9.26-2.707,22.889-3.958,35.23,5.455,5.947,6.7,22.734,22.159,35.913,19.95,16.1-2.7,28.407-26.354,28.53-26.593a4,4,0,0,1,7.122,3.644c-.573,1.12-14.254,27.473-34.329,30.839A24.013,24.013,0,0,1,151.974,62.27Z"></path><path id="Path_17" data-name="Path 17" d="M250.424,92a4,4,0,0,1-3.969-3.543c-1.831-15.894-10.214-58.284-26.8-63.5-19.767-6.216-29.207,6.153-29.3,6.279a4,4,0,1,1-6.43-4.76c.518-.7,12.985-17.057,38.129-9.15,24.485,7.7,31.613,63.84,32.345,70.217a4,4,0,0,1-3.517,4.43A4.045,4.045,0,0,1,250.424,92Z"></path><path id="Path_18" data-name="Path 18" d="M86.7,310.667c-11.274,0-20.623-9-22.29-12.453-.886-1.837-85.9-187.55-25.688-273.836a4,4,0,1,1,6.561,4.578c-57.648,82.613,25.467,263.988,26.333,265.782.78,1.389,7.678,8.252,15.642,7.917,6.964-.293,13.055-6.069,18.1-17.169a4,4,0,1,1,7.282,3.312c-8.153,17.925-18.478,21.785-25.7,21.867Z"></path><path id="Path_19" data-name="Path 19" d="M62.712,205.144a4,4,0,0,1-3.846-2.91l-2.714-9.571a4,4,0,1,1,7.7-2.183l2.714,9.571a4,4,0,0,1-3.85,5.092Z"></path><path id="Path_20" data-name="Path 20" d="M63.129,205.136a4,4,0,0,1-3.839-2.885l-3.275-11.277a4,4,0,0,1,7.683-2.231l3.275,11.277a4,4,0,0,1-3.843,5.117Z" transform="matrix(0.899, 0.438, -0.438, 0.899, 143.287, 61.975)"></path><path id="Path_21" data-name="Path 21" d="M254.715,223.839c-21.572,0-38.174-6.026-49.4-17.92-16.439-17.421-15.042-40.868-14.974-41.857,2.972-56.659,53.689-63.143,54.2-63.2,49.079-7.391,66.566,41.338,66.736,41.831a4,4,0,0,1-7.557,2.626c-.615-1.756-15.547-42.937-58.127-36.527-1.947.234-44.652,5.9-47.268,55.754-.017.264-1.181,21.122,12.866,35.947,9.838,10.383,24.843,15.546,44.6,15.344,1.859-.045,46.686-1.722,50.217-53.605a4,4,0,0,1,7.982.543c-4.035,59.3-57.538,61.05-58.078,61.061C255.513,223.837,255.112,223.839,254.715,223.839Z"></path><path id="Path_22" data-name="Path 22" d="M262.333,157.667a4,4,0,0,1-4-4V132.208c-1.333-4.467-4.443-4.92-6.215-4.781-2.982.234-5.585,2.3-5.8,4.615l.018,20.458a4,4,0,0,1-8,0V131.667c.6-6.582,6.252-11.672,13.158-12.215,7.05-.554,12.826,3.85,14.716,11.222a4,4,0,0,1,.125.993v22A4,4,0,0,1,262.333,157.667Z"></path><path id="Path_23" data-name="Path 23" d="M262.488,156.147a4,4,0,0,1-4-3.97l-.156-20.481a5.644,5.644,0,0,0-6.215-4.27c-2.982.234-5.585,2.3-5.8,4.615l.58,19.668a4,4,0,0,1-8,.224l-.564-20.156c.6-6.694,6.251-11.784,13.157-12.327,7.05-.554,12.826,3.85,14.716,11.222l.281,21.444a4,4,0,0,1-3.969,4.03Z" transform="matrix(-1, -0.017, 0.017, -1, 502.21, 329.455)"></path><path id="Path_24" data-name="Path 24" d="M243.065,156.7a4,4,0,0,1-4-3.86l-.735-21.035c.6-6.722,6.25-11.812,13.156-12.355,7.049-.554,12.826,3.85,14.716,11.222l.8,20.358a4,4,0,1,1-8,.279l-.681-19.5a5.641,5.641,0,0,0-6.217-4.379c-2.982.234-5.585,2.3-5.8,4.615l.75,20.52a4,4,0,0,1-3.858,4.137Z" transform="matrix(0.035, -0.999, 0.999, 0.035, 81.242, 409.845)"></path><path id="Path_25" data-name="Path 25" d="M262.779,155.667a4,4,0,0,1-4-3.91l-.448-20a5.641,5.641,0,0,0-6.216-4.329c-2.982.234-5.585,2.3-5.8,4.615l.878,19.031a4,4,0,0,1-7.992.353l-.864-19.583c.6-6.759,6.249-11.848,13.154-12.391,7.05-.554,12.826,3.85,14.716,11.222l.572,20.9a4,4,0,0,1-3.909,4.089Z" transform="translate(414.083 -89.531) rotate(90)"></path></g></g></g></svg>