<svg xmlns="http://www.w3.org/2000/svg" width="312.177" height="311.206" viewBox="0 0 312.177 311.206"><g id="Group_6" data-name="Group 6" transform="translate(-1.317 -0.58)"><path id="Path_52" data-name="Path 52" d="M207.907,314.787c-3.42,0-8.079-1.3-12.694-6.684a4,4,0,0,1-.72-1.23l-17.917-49a4,4,0,1,1,7.513-2.747l17.657,48.289c2.248,2.45,4.426,3.547,6.644,3.35,3.514-.312,6.955-3.8,8.578-6.26l8.358-42.035c2.186-5.363,7.824-8.9,13.952-9.384a16.665,16.665,0,0,1,15.862,8.042,4,4,0,0,1,.467,1.062l11.75,42.75c.543,2.441,3.059,4.205,6.033,4.4a6.531,6.531,0,0,0,6.844-4.684c.5-1.2,41.806-99.572,17.888-137.258a4,4,0,0,1,6.755-4.287c26.158,41.216-15.413,140.261-17.2,144.457a14.332,14.332,0,0,1-14.8,9.755c-6.561-.419-12.024-4.72-13.287-10.459L248.06,260.918a8.634,8.634,0,0,0-8.151-3.857c-3.441.272-6.3,2.16-6.977,3.753l-8.259,41.967a4,4,0,0,1-.475,1.248c-2.159,3.671-7.769,10.056-15.1,10.706C208.721,314.768,208.323,314.787,207.907,314.787Z" transform="translate(0 -3)"></path><path id="Path_53" data-name="Path 53" d="M284.336,235a4,4,0,0,1-3.888-4.954c6.442-26.262,3.84-45.269,1.288-52.359a4,4,0,1,1,7.527-2.71c3.547,9.854,5.4,30.688-1.045,56.974A4,4,0,0,1,284.336,235Z" transform="translate(0 -0.725)"></path><path id="Path_56" data-name="Path 56" d="M0,47.825A4,4,0,0,1-3.431,45.88a4,4,0,0,1,1.375-5.487C7.53,34.648,9.86,14.906,2.477,1.984A4,4,0,0,1,3.965-3.473,4,4,0,0,1,9.423-1.984c9.629,16.852,5.98,41.241-7.367,49.24A3.982,3.982,0,0,1,0,47.825Z" transform="translate(223.481 161.26) rotate(-101)"></path><path id="Path_54" data-name="Path 54" d="M173.4,233.971a4,4,0,0,1-3.7-2.466c-7.136-17.164-11.425-47.472-.028-76.4,6.768-17.181,18.512-20.769,27.246-18.4,6.84,1.857,11.6,7.164,10.828,12.081a4,4,0,0,1-7.9-1.235c-.236-.681-3.024-3.2-7.141-3.485-6.328-.442-11.863,4.519-15.586,13.968-9.846,24.994-7.109,53.367-.028,70.4a4,4,0,0,1-3.692,5.537Z" transform="translate(0 5.81)"></path><path id="Path_55" data-name="Path 55" d="M246.836,175.55c-9.689,0-17.52-6.487-23.376-11.339-2.306-1.911-5.465-4.527-6.644-4.681l-.051-.007c-6.617-.515-17.987,6.353-21.456,8.807a4,4,0,1,1-4.619-6.532c1.606-1.136,15.93-11.021,26.6-10.257q.138.007.278.023l.123.016q.079.007.156.017c3.469.452,6.666,3.1,10.713,6.453,5.577,4.62,12.519,10.37,20.064,9.382,5.865-.768,11.959-5.541,18.114-14.188,1.208-1.382,9.555-10.324,18.358-8.606a4,4,0,0,1-1.532,7.852c-3.483-.68-8.642,3.58-10.594,5.75-7.316,10.324-15.033,16.042-23.307,17.125A21.8,21.8,0,0,1,246.836,175.55Z" transform="translate(0 -1.754)"></path><path id="Path_57" data-name="Path 57" d="M45.2,179.6a4,4,0,0,1-2.789-6.868c.5-.487,49.985-48.621,74.1-73.671l14.113-40.77a4,4,0,1,1,7.56,2.617l-14.4,41.6a4,4,0,0,1-.895,1.462c-23.97,24.961-74.39,74-74.9,74.5A3.987,3.987,0,0,1,45.2,179.6Z" transform="translate(0 0.782)"></path><path id="Path_58" data-name="Path 58" d="M22.4,202.6a4,4,0,0,1-2.861-6.795l8.4-8.6a4,4,0,1,1,5.723,5.59l-8.4,8.6A3.988,3.988,0,0,1,22.4,202.6Z" transform="translate(0 -0.493)"></path><path id="Path_59" data-name="Path 59" d="M20,242.772A17.663,17.663,0,0,1,3.489,232.34c-3.995-8.665-2.281-19.994,3.526-23.313a4,4,0,0,1,3.969,6.946c-1.432.979-2.846,7.919-.007,13.477,2.7,5.293,8.028,6.662,15.834,4.074L139.5,119.6l12.205-36.615a4,4,0,0,1,7.589,2.53l-12.5,37.5a4,4,0,0,1-.951,1.548l-114,115.25a4,4,0,0,1-1.491.952A30.721,30.721,0,0,1,20,242.772Z" transform="translate(0 -0.125)"></path><path id="Path_60" data-name="Path 60" d="M221,104.75a3.988,3.988,0,0,1-2.888-1.232l-13.5-14.083a4,4,0,0,1,5.775-5.536l13.5,14.083A4,4,0,0,1,221,104.75Z" transform="translate(-1 1.821)"></path><path id="Path_61" data-name="Path 61" d="M14,8a16.418,16.418,0,0,0-6,.979v.93c0,5.6,3.168,9.789,6,9.789s6-4.186,6-9.789v-.93A16.418,16.418,0,0,0,14,8m0-8c7,0,14,2.456,14,7.368V9.91C28,19.734,21.732,27.7,14,27.7S0,19.734,0,9.91V7.368C0,2.456,7,0,14,0Z" transform="translate(179.12 81.671) rotate(-46)"></path><path id="Path_62" data-name="Path 62" d="M170.014,96.574c-4.779,0-8.644-3.712-9.074-4.14-11.863-9.938-37.131-38.171-38.2-39.368-2.52-1.915-6.584-8.871-.33-18.108l31.55-31.4A9.193,9.193,0,0,1,163.749-.2c2.268.457,5.459,1.972,6.917,4.164L193.005,26.59a4,4,0,0,1-5.693,5.621l-22.6-22.886a4.7,4.7,0,0,1-.61-.771,4.344,4.344,0,0,0-2.642-.959c-.216.021-.722.071-1.365,1.031L128.538,40.04c-2.943,4.481-.733,6.863-.255,7.289.679.695,26.376,29.408,38.052,39.208,1.04.994,2.7,2.065,3.712,2.037.16,0,.429-.011.878-.495l32.239-34.222c2.3-3.817,1.881-5.767,1.688-6.258a2.687,2.687,0,0,0-1.656-1.311,4.043,4.043,0,0,1-2.9-4.824,3.959,3.959,0,0,1,4.7-2.969,10.653,10.653,0,0,1,7.218,5.975c1.643,3.916.718,8.711-2.748,14.252l-32.7,34.821a9.083,9.083,0,0,1-6.573,3.029Z" transform="translate(1 1)"></path><path id="Path_63" data-name="Path 63" d="M169.752,42.25a3.991,3.991,0,0,1-3.056-1.416l-5.242-6.195-5.44,6.24a4,4,0,1,1-6.03-5.257l8.5-9.75a4,4,0,0,1,6.069.045l8.25,9.75a4,4,0,0,1-3.052,6.584Z" transform="translate(0 1)"></path></g></svg>