<svg xmlns="http://www.w3.org/2000/svg" xmlns:xlink="http://www.w3.org/1999/xlink" width="94" height="100" viewBox="0 0 94 100"><defs><clipPath id="clip-Friendly_Hospitals_Medicalist"><rect width="94" height="100"></rect></clipPath></defs><g id="Friendly_Hospitals_Medicalist" data-name="Friendly Hospitals Medicalist" clip-path="url(#clip-Friendly_Hospitals_Medicalist)"><path id="Rectangle_1" data-name="Rectangle 1" d="M4,4V24H24V4H4M0,0H28V28H0Z" transform="translate(33 2)"></path><path id="Path_1" data-name="Path 1" d="M960,512.263a2,2,0,0,1-2-2V500.23a2,2,0,0,1,4,0v10.033A2,2,0,0,1,960,512.263Z" transform="translate(-913 -489.22)"></path><path id="Path_2" data-name="Path 2" d="M960,512.263a2,2,0,0,1-2-2V500.23a2,2,0,0,1,4,0v10.033A2,2,0,0,1,960,512.263Z" transform="translate(552.247 -943.974) rotate(90)"></path><path id="Rectangle_2" data-name="Rectangle 2" d="M4,4V8H56V4H4M0,0H60V12H0Z" transform="translate(17 26)"></path><path id="Rectangle_3" data-name="Rectangle 3" d="M4,4V51H56V4H4M0,0H60V55H0Z" transform="translate(17 34)"></path><path id="Rectangle_4" data-name="Rectangle 4" d="M4,4V46h7V4H4M0,0H15V50H0Z" transform="translate(6 39)"></path><path id="Path_3" data-name="Path 3" d="M931.219,540.976h-9.871v-4h9.871Z" transform="translate(-913 -490)"></path><path id="Rectangle_5" data-name="Rectangle 5" d="M4,4V46h7V4H4M0,0H15V50H0Z" transform="translate(73 39)"></path><path id="Path_4" data-name="Path 4" d="M931.219,540.976h-9.871v-4h9.871Z" transform="translate(-846 -490)"></path><path id="Rectangle_6" data-name="Rectangle 6" d="M4,4v6h7V4H4M0,0H15V14H0Z" transform="translate(29 44)"></path><path id="Rectangle_7" data-name="Rectangle 7" d="M4,4v6h7V4H4M0,0H15V14H0Z" transform="translate(50 44)"></path><path id="Rectangle_8" data-name="Rectangle 8" d="M4,4v6h7V4H4M0,0H15V14H0Z" transform="translate(29 65)"></path><path id="Rectangle_9" data-name="Rectangle 9" d="M4,4v6h7V4H4M0,0H15V14H0Z" transform="translate(50 65)"></path><path id="Path_5" data-name="Path 5" d="M951.847,588.165h-34.8a2,2,0,0,1-2-2V576.9a2,2,0,0,1,2-2h6.528a2,2,0,0,1,0,4h-4.528v5.263h32.8a2,2,0,0,1,0,4Z" transform="translate(-913 -490)"></path><path id="Path_6" data-name="Path 6" d="M951.094,588.165H916.025a2,2,0,0,1,0-4h33.069V578.9h-3.776a2,2,0,0,1,0-4h5.776a2,2,0,0,1,2,2v9.263A2,2,0,0,1,951.094,588.165Z" transform="translate(-861 -490)"></path><path id="Ellipse_1" data-name="Ellipse 1" d="M2,0A2,2,0,1,1,0,2,2,2,0,0,1,2,0Z" transform="translate(45 94)"></path></g></svg>